<?xml version="1.0" encoding="utf-8"?>
<!-- Svg Vector Icons : http://www.onlinewebfonts.com/icon -->
<!DOCTYPE svg PUBLIC "-//W3C//DTD SVG 1.1//EN" "http://www.w3.org/Graphics/SVG/1.1/DTD/svg11.dtd">
<svg version="1.1" xmlns="http://www.w3.org/2000/svg" xmlns:xlink="http://www.w3.org/1999/xlink" x="0px" y="0px" viewBox="0 0 1000 1000" enable-background="new 0 0 1000 1000" xml:space="preserve">
<metadata> Svg Vector Icons : http://www.onlinewebfonts.com/icon </metadata>
<g><g transform="translate(0.000000,511.000000) scale(0.100000,-0.100000)"><path d="M3449.8,4593.1c-184.4-54.1-274.6-102.2-433-220.5c-479.1-358.8-645.5-1048.4-388.9-1593.7c68.2-142.3,76.2-258.6,26.1-336.8c-70.2-104.2-84.2-106.2-1172.7-106.2c-593.4,0-1036.4-8-1078.5-20c-98.2-26.1-218.5-132.3-262.6-228.5c-34.1-76.2-38.1-148.3-38.1-930.2c0-942.2-2-932.2,132.3-996.3c88.2-42.1,112.3-38.1,264.6,28.1c236.6,104.2,366.9,128.3,635.5,118.3c266.6-12,413-52.1,625.5-178.4c144.3-86.2,356.8-300.7,443-445c230.5-384.9,246.6-876,42.1-1275c-196.5-380.9-557.3-637.5-990.3-703.6c-238.5-36.1-525.2,6-729.7,108.2c-50.1,26.1-116.3,52.1-146.3,60.1c-72.2,16.1-178.4-28.1-234.5-98.2l-44.1-56.1l6-928.2l6-926.2l60.1-88.2c40.1-56.1,98.2-104.2,168.4-140.3l110.3-56.1h3371.9h3371.9l106.2,56.1c68.2,34.1,130.3,88.2,168.4,142.3l60.1,86.2l10,944.2c10,860,14.1,950.2,46.1,998.3c82.2,122.3,210.5,126.3,441,16c384.9-184.4,793.8-176.4,1184.7,28.1c615.4,318.8,866,1100.6,555.3,1728C9532,48.5,9113,311.1,8591.8,311.1c-242.5,0-382.9-32.1-605.4-140.3c-182.4-90.2-198.5-92.2-296.7-52.1c-142.3,60.1-138.3,38.1-150.4,1034.4l-10,896.1l-56.1,82.2c-30.1,46.1-92.2,108.3-138.3,138.3l-84.2,56.1l-1076.5,10c-1054.5,10-1078.5,10-1134.6,52.1c-30.1,22.1-68.2,76.2-84.2,120.3c-26.1,76.2-24.1,86.2,42.1,238.6c180.4,411,180.4,793.8-2,1162.7c-176.4,354.8-495.2,613.4-864,699.6C3934.9,4655.2,3632.2,4649.2,3449.8,4593.1z"/></g></g>
</svg>